<?xml version="1.0" encoding="UTF-8" standalone="no"?>
<!-- Created with Inkscape (http://www.inkscape.org/) -->

<svg
   width="297mm"
   height="210mm"
   viewBox="0 0 1122.5197 793.70081"
   version="1.1"
   id="svg1"
   xml:space="preserve"
   inkscape:version="1.3.1 (91b66b0783, 2023-11-16)"
   sodipodi:docname="class-banner-A4.svg"
   inkscape:export-filename="class-banner-A4.png"
   inkscape:export-xdpi="96"
   inkscape:export-ydpi="96"
   xmlns:inkscape="http://www.inkscape.org/namespaces/inkscape"
   xmlns:sodipodi="http://sodipodi.sourceforge.net/DTD/sodipodi-0.dtd"
   xmlns="http://www.w3.org/2000/svg"
   xmlns:svg="http://www.w3.org/2000/svg"><sodipodi:namedview
     id="namedview1"
     pagecolor="#ffffff"
     bordercolor="#000000"
     borderopacity="0.25"
     inkscape:showpageshadow="2"
     inkscape:pageopacity="0.0"
     inkscape:pagecheckerboard="0"
     inkscape:deskcolor="#d1d1d1"
     inkscape:document-units="mm"
     showguides="true"
     inkscape:zoom="0.72871773"
     inkscape:cx="392.47021"
     inkscape:cy="616.83692"
     inkscape:window-width="1920"
     inkscape:window-height="1011"
     inkscape:window-x="0"
     inkscape:window-y="0"
     inkscape:window-maximized="1"
     inkscape:current-layer="layer1"><sodipodi:guide
       position="564.5582,708.65168"
       orientation="1,0"
       id="guide1"
       inkscape:locked="false" /><sodipodi:guide
       position="778.21581,399.74118"
       orientation="0,-1"
       id="guide2"
       inkscape:locked="false" /></sodipodi:namedview><defs
     id="defs1"><clipPath
       clipPathUnits="userSpaceOnUse"
       id="clipPath2"><path
         d="M 0,255 H 568 V 0 H 0 Z"
         transform="translate(-248.56101,-94.204105)"
         id="path2" /></clipPath><clipPath
       clipPathUnits="userSpaceOnUse"
       id="clipPath4"><path
         d="M 0,255 H 568 V 0 H 0 Z"
         transform="translate(-297.04201,-103.1865)"
         id="path4" /></clipPath><clipPath
       clipPathUnits="userSpaceOnUse"
       id="clipPath6"><path
         d="M 0,255 H 568 V 0 H 0 Z"
         transform="translate(-337.04791,-88.1533)"
         id="path6" /></clipPath><clipPath
       clipPathUnits="userSpaceOnUse"
       id="clipPath8"><path
         d="M 0,255 H 568 V 0 H 0 Z"
         transform="translate(-345.58691,-94.204105)"
         id="path8" /></clipPath><clipPath
       clipPathUnits="userSpaceOnUse"
       id="clipPath10"><path
         d="M 0,255 H 568 V 0 H 0 Z"
         transform="translate(-391.77251,-117.2002)"
         id="path10" /></clipPath><clipPath
       clipPathUnits="userSpaceOnUse"
       id="clipPath12"><path
         d="M 0,255 H 568 V 0 H 0 Z"
         transform="translate(-431.77831,-88.1533)"
         id="path12" /></clipPath><clipPath
       clipPathUnits="userSpaceOnUse"
       id="clipPath14"><path
         d="M 0,255 H 568 V 0 H 0 Z"
         transform="translate(-468.79391,-73.374002)"
         id="path14" /></clipPath><clipPath
       clipPathUnits="userSpaceOnUse"
       id="clipPath16"><path
         d="M 0,255 H 568 V 0 H 0 Z"
         transform="translate(-478.73341,-88.407205)"
         id="path16" /></clipPath><linearGradient
       x1="0"
       y1="0"
       x2="1"
       y2="0"
       gradientUnits="userSpaceOnUse"
       gradientTransform="matrix(86.627441,0,0,-86.627441,89.035156,193.15332)"
       spreadMethod="pad"
       id="linearGradient21"><stop
         style="stop-opacity:1;stop-color:#97ca4e icc-color(sRGB-IEC61966-2.1, 0.59214783, 0.79214478, 0.30587769);"
         offset="0"
         id="stop16" /><stop
         style="stop-opacity:1;stop-color:#97ca4e icc-color(sRGB-IEC61966-2.1, 0.59214783, 0.79214478, 0.30587769);"
         offset="0.169907"
         id="stop17" /><stop
         style="stop-opacity:1;stop-color:#97ca4e icc-color(sRGB-IEC61966-2.1, 0.59214783, 0.79214478, 0.30587769);"
         offset="0.29401455"
         id="stop18" /><stop
         style="stop-opacity:1;stop-color:#008541 icc-color(sRGB-IEC61966-2.1, 0, 0.52157593, 0.25488281);"
         offset="0.762451"
         id="stop19" /><stop
         style="stop-opacity:1;stop-color:#008541 icc-color(sRGB-IEC61966-2.1, 0, 0.52157593, 0.25488281);"
         offset="0.81220532"
         id="stop20" /><stop
         style="stop-opacity:1;stop-color:#008541 icc-color(sRGB-IEC61966-2.1, 0, 0.52157593, 0.25488281);"
         offset="1"
         id="stop21" /></linearGradient><linearGradient
       x1="0"
       y1="0"
       x2="1"
       y2="0"
       gradientUnits="userSpaceOnUse"
       gradientTransform="matrix(-71.143906,152.56859,152.56859,71.143921,154.49512,53.958984)"
       spreadMethod="pad"
       id="linearGradient24"><stop
         style="stop-opacity:1;stop-color:#97ca4e icc-color(sRGB-IEC61966-2.1, 0.59214783, 0.79214478, 0.30587769);"
         offset="0"
         id="stop22" /><stop
         style="stop-opacity:1;stop-color:#97ca4e icc-color(sRGB-IEC61966-2.1, 0.59214783, 0.79214478, 0.30587769);"
         offset="0.55007649"
         id="stop23" /><stop
         style="stop-opacity:1;stop-color:#008541 icc-color(sRGB-IEC61966-2.1, 0, 0.52157593, 0.25488281);"
         offset="1"
         id="stop24" /></linearGradient><linearGradient
       x1="0"
       y1="0"
       x2="1"
       y2="0"
       gradientUnits="userSpaceOnUse"
       gradientTransform="matrix(0,-124.70764,-124.70764,0,177.1582,225.25244)"
       spreadMethod="pad"
       id="linearGradient30"><stop
         style="stop-opacity:1;stop-color:#97ca4e icc-color(sRGB-IEC61966-2.1, 0.59214783, 0.79214478, 0.30587769);"
         offset="0"
         id="stop25" /><stop
         style="stop-opacity:1;stop-color:#97ca4e icc-color(sRGB-IEC61966-2.1, 0.59214783, 0.79214478, 0.30587769);"
         offset="0.169907"
         id="stop26" /><stop
         style="stop-opacity:1;stop-color:#97ca4e icc-color(sRGB-IEC61966-2.1, 0.59214783, 0.79214478, 0.30587769);"
         offset="0.29401455"
         id="stop27" /><stop
         style="stop-opacity:1;stop-color:#008541 icc-color(sRGB-IEC61966-2.1, 0, 0.52157593, 0.25488281);"
         offset="0.762451"
         id="stop28" /><stop
         style="stop-opacity:1;stop-color:#008541 icc-color(sRGB-IEC61966-2.1, 0, 0.52157593, 0.25488281);"
         offset="0.81220532"
         id="stop29" /><stop
         style="stop-opacity:1;stop-color:#008541 icc-color(sRGB-IEC61966-2.1, 0, 0.52157593, 0.25488281);"
         offset="1"
         id="stop30" /></linearGradient><radialGradient
       fx="0"
       fy="0"
       cx="0"
       cy="0"
       r="1"
       gradientUnits="userSpaceOnUse"
       gradientTransform="matrix(119.92499,0,0,-150.14609,126.61523,32.369141)"
       spreadMethod="pad"
       id="radialGradient33"><stop
         style="stop-opacity:1;stop-color:#97ca4e icc-color(sRGB-IEC61966-2.1, 0.59214783, 0.79214478, 0.30587769);"
         offset="0"
         id="stop31" /><stop
         style="stop-opacity:1;stop-color:#97ca4e icc-color(sRGB-IEC61966-2.1, 0.59214783, 0.79214478, 0.30587769);"
         offset="0.63868264"
         id="stop32" /><stop
         style="stop-opacity:1;stop-color:#008541 icc-color(sRGB-IEC61966-2.1, 0, 0.52157593, 0.25488281);"
         offset="1"
         id="stop33" /></radialGradient><clipPath
       clipPathUnits="userSpaceOnUse"
       id="clipPath35"><path
         d="M 0,255 H 568 V 0 H 0 Z"
         transform="translate(-273.1621,-142.0986)"
         id="path35" /></clipPath><clipPath
       clipPathUnits="userSpaceOnUse"
       id="clipPath37"><path
         d="M 0,255 H 568 V 0 H 0 Z"
         transform="translate(-296.9014,-166.47171)"
         id="path37" /></clipPath><clipPath
       clipPathUnits="userSpaceOnUse"
       id="clipPath39"><path
         d="M 0,255 H 568 V 0 H 0 Z"
         transform="translate(-310.59081,-137.7354)"
         id="path39" /></clipPath><clipPath
       clipPathUnits="userSpaceOnUse"
       id="clipPath41"><path
         d="M 0,255 H 568 V 0 H 0 Z"
         transform="translate(-346.98541,-166.47171)"
         id="path41" /></clipPath><clipPath
       clipPathUnits="userSpaceOnUse"
       id="clipPath43"><path
         d="M 0,255 H 568 V 0 H 0 Z"
         transform="translate(-410.14941,-154.8145)"
         id="path43" /></clipPath><clipPath
       clipPathUnits="userSpaceOnUse"
       id="clipPath45"><path
         d="M 0,255 H 568 V 0 H 0 Z"
         transform="translate(-424.85451,-144.3096)"
         id="path45" /></clipPath><clipPath
       clipPathUnits="userSpaceOnUse"
       id="clipPath47"><path
         d="M 0,255 H 568 V 0 H 0 Z"
         transform="translate(-446.46971,-180.6699)"
         id="path47" /></clipPath><clipPath
       clipPathUnits="userSpaceOnUse"
       id="clipPath49"><path
         d="M 0,255 H 568 V 0 H 0 Z"
         transform="translate(-443.42291,-180.8291)"
         id="path49" /></clipPath><clipPath
       id="04ced965c7"><path
         d="m 203,148 h 44 v 38.30859 h -44 z m 0,0"
         clip-rule="nonzero"
         id="path4-5" /></clipPath></defs><g
     inkscape:label="Layer 1"
     inkscape:groupmode="layer"
     id="layer1"><rect
       style="fill:#ffffff;fill-opacity:1;stroke:none;stroke-width:11.123;stroke-dasharray:none;stroke-opacity:1"
       id="rect4"
       width="1122.8304"
       height="794.45673"
       x="-2.6201263e-14"
       y="-0.37790287" /><g
       id="g3"
       transform="matrix(0.73151865,0,0,0.73151865,-17.729103,262.68155)"><path
         id="path1"
         d="m 0,0 v 0.127 c 0,12.039 8.729,23.059 22.041,23.059 6.689,0 11.084,-1.846 15.226,-4.967 0.381,-0.319 0.637,-0.766 0.637,-1.338 0,-0.891 -0.766,-1.656 -1.656,-1.656 -0.256,0 -0.639,0.127 -1.02,0.445 -3.439,2.678 -7.199,4.523 -13.377,4.523 -10.83,0 -18.412,-9.172 -18.412,-19.939 V 0.127 c 0,-11.531 7.2,-20.129 19.111,-20.129 5.67,0 10.957,2.356 14.207,5.096 V -2.104 H 23.125 c -0.829,0 -1.53,0.702 -1.53,1.53 0,0.828 0.701,1.529 1.53,1.529 h 15.162 c 0.89,0 1.656,-0.766 1.656,-1.656 v -14.588 c 0,-0.637 -0.447,-1.338 -1.149,-1.91 -4.203,-3.25 -9.746,-5.735 -16.371,-5.735 C 8.346,-22.934 0,-12.549 0,0"
         style="fill:#37b34a icc-color(sRGB-IEC61966-2, 0.1, 0.21598816, 0.70199585, 0.28999329);fill-opacity:1;fill-rule:nonzero;stroke:none"
         transform="matrix(1.3333333,0,0,-1.3333333,331.41467,214.39453)"
         clip-path="url(#clipPath2)" /><path
         id="path3"
         d="M 0,0 C 0,0.891 0.637,1.592 1.529,1.592 2.42,1.592 3.121,0.955 3.121,0 v -29.813 c 0,-0.957 -0.637,-1.593 -1.529,-1.593 -0.891,0 -1.592,0.636 -1.592,1.593 z m -0.383,12.484 c 0,1.084 0.828,1.912 1.912,1.912 1.084,0 1.975,-0.828 1.975,-1.912 v -1.082 c 0,-1.082 -0.891,-1.91 -1.975,-1.91 -1.084,0 -1.912,0.828 -1.912,1.91 z"
         style="fill:#37b34a icc-color(sRGB-IEC61966-2, 0.1, 0.21598816, 0.70199585, 0.28999329);fill-opacity:1;fill-rule:nonzero;stroke:none"
         transform="matrix(1.3333333,0,0,-1.3333333,396.056,202.418)"
         clip-path="url(#clipPath4)" /><path
         id="path5"
         d="m 0,0 v 0.127 c 0,7.834 -5.859,14.078 -13.377,14.078 -7.709,0 -13.252,-6.309 -13.252,-13.951 V 0.127 c 0,-7.836 5.861,-14.078 13.379,-14.078 C -5.543,-13.951 0,-7.646 0,0 m -30.004,0 v 0.127 c 0,9.109 7.072,17.008 16.754,17.008 9.619,0 16.627,-7.772 16.627,-16.881 V 0.127 c 0,-9.109 -7.072,-17.01 -16.754,-17.01 -9.621,0 -16.627,7.772 -16.627,16.883"
         style="fill:#37b34a icc-color(sRGB-IEC61966-2, 0.1, 0.21598816, 0.70199585, 0.28999329);fill-opacity:1;fill-rule:nonzero;stroke:none"
         transform="matrix(1.3333333,0,0,-1.3333333,449.3972,222.46227)"
         clip-path="url(#clipPath6)" /><path
         id="path7"
         d="m 0,0 v 0.127 c 0,12.613 9.428,23.059 22.297,23.059 7.389,0 12.039,-2.547 16.371,-6.241 0.316,-0.32 0.637,-0.765 0.637,-1.338 0,-0.892 -0.828,-1.656 -1.721,-1.656 -0.445,0 -0.891,0.19 -1.146,0.445 -3.696,3.377 -7.963,5.797 -14.206,5.797 C 11.529,20.193 3.439,11.467 3.439,0.254 V 0.127 c 0,-11.275 8.219,-20.066 18.858,-20.066 6.051,0 10.318,2.166 14.523,6.179 0.254,0.254 0.637,0.51 1.147,0.51 0.828,0 1.592,-0.766 1.592,-1.594 0,-0.51 -0.254,-0.89 -0.51,-1.146 -4.522,-4.205 -9.428,-6.944 -16.881,-6.944 C 9.428,-22.934 0,-12.805 0,0"
         style="fill:#37b34a icc-color(sRGB-IEC61966-2, 0.1, 0.21598816, 0.70199585, 0.28999329);fill-opacity:1;fill-rule:nonzero;stroke:none"
         transform="matrix(1.3333333,0,0,-1.3333333,460.78253,214.39453)"
         clip-path="url(#clipPath8)" /><path
         id="path9"
         d="M 0,0 C 0,0.891 0.639,1.592 1.529,1.592 2.422,1.592 3.123,0.891 3.123,0 v -43.826 c 0,-0.957 -0.639,-1.594 -1.529,-1.594 -0.893,0 -1.594,0.637 -1.594,1.594 z"
         style="fill:#37b34a icc-color(sRGB-IEC61966-2, 0.1, 0.21598816, 0.70199585, 0.28999329);fill-opacity:1;fill-rule:nonzero;stroke:none"
         transform="matrix(1.3333333,0,0,-1.3333333,522.36333,183.73307)"
         clip-path="url(#clipPath10)" /><path
         id="path11"
         d="m 0,0 v 0.127 c 0,7.834 -5.859,14.078 -13.377,14.078 -7.707,0 -13.25,-6.309 -13.25,-13.951 V 0.127 c 0,-7.836 5.861,-14.078 13.377,-14.078 C -5.541,-13.951 0,-7.646 0,0 m -30.004,0 v 0.127 c 0,9.109 7.07,17.008 16.754,17.008 9.619,0 16.627,-7.772 16.627,-16.881 V 0.127 c 0,-9.109 -7.07,-17.01 -16.754,-17.01 -9.619,0 -16.627,7.772 -16.627,16.883"
         style="fill:#37b34a icc-color(sRGB-IEC61966-2, 0.1, 0.21598816, 0.70199585, 0.28999329);fill-opacity:1;fill-rule:nonzero;stroke:none"
         transform="matrix(1.3333333,0,0,-1.3333333,575.7044,222.46227)"
         clip-path="url(#clipPath12)" /><path
         id="path13"
         d="m 0,0 c 0,-0.895 -0.639,-1.594 -1.529,-1.594 -0.893,0 -1.594,0.637 -1.594,1.594 v 4.713 c -2.166,-3.822 -5.797,-6.817 -11.721,-6.817 -8.219,0 -12.994,5.608 -12.994,13.377 v 18.54 c 0,0.955 0.635,1.591 1.527,1.591 0.893,0 1.592,-0.636 1.592,-1.591 V 11.848 c 0,-6.69 3.76,-11.086 10.321,-11.086 6.371,0 11.275,4.842 11.275,11.595 v 17.456 c 0,0.955 0.639,1.591 1.529,1.591 0.893,0 1.594,-0.636 1.594,-1.591 z"
         style="fill:#37b34a icc-color(sRGB-IEC61966-2, 0.1, 0.21598816, 0.70199585, 0.28999329);fill-opacity:1;fill-rule:nonzero;stroke:none"
         transform="matrix(1.3333333,0,0,-1.3333333,625.05853,242.168)"
         clip-path="url(#clipPath14)" /><path
         id="path15"
         d="m 0,0 v -0.127 c 0,-8.537 5.924,-14.016 12.74,-14.016 6.752,0 13.25,5.67 13.25,13.952 v 0.127 c 0,8.345 -6.498,13.951 -13.25,13.951 C 5.668,13.887 0,8.729 0,0 m 28.92,-15.033 c 0,-0.957 -0.637,-1.594 -1.529,-1.594 -0.893,0 -1.592,0.637 -1.592,1.594 v 5.924 c -2.803,-4.268 -6.944,-8.028 -13.379,-8.028 -7.834,0 -15.797,6.307 -15.797,16.883 v 0.127 c 0,10.574 7.963,17.008 15.797,17.008 6.498,0 10.703,-3.695 13.379,-7.772 v 19.684 c 0,0.955 0.637,1.592 1.527,1.592 0.893,0 1.594,-0.637 1.594,-1.592 z"
         style="fill:#37b34a icc-color(sRGB-IEC61966-2, 0.1, 0.21598816, 0.70199585, 0.28999329);fill-opacity:1;fill-rule:nonzero;stroke:none"
         transform="matrix(1.3333333,0,0,-1.3333333,638.3112,222.12373)"
         clip-path="url(#clipPath16)" /><path
         id="path21"
         d="m 89.035,158.928 c 5.493,39.245 47.401,56.419 69.828,47.824 v 0 c 5.724,-2.193 10.395,-6.804 9.224,-13.817 v 0 c -0.378,-2.264 -1.636,-4.567 -3.265,-6.966 v 0 c 0,0 24.288,29.848 0.156,38.483 v 0 c -5.605,2.006 -11.049,2.925 -16.267,2.926 v 0 c -33.498,0.004 -57.931,-37.822 -59.676,-68.45"
         transform="matrix(1.3333333,0,0,-1.3333333,0,340)"
         style="fill:url(#linearGradient21);stroke:none" /><path
         id="path24"
         d="m 140.352,227.261 c -9.573,-0.781 -34.818,-5.73 -54.424,-24.316 v 0 C 65.527,183.603 60.094,155.259 60.356,124.331 v 0 c 0.633,-74.782 34.809,-87.078 49.69,-90.772 v 0 c 0.11,-0.025 0.222,-0.056 0.343,-0.056 v 0 c 0.592,0 1.072,0.48 1.072,1.071 v 0 c 0,0.445 -0.283,0.794 -0.654,0.988 v 0 C 85.12,48.954 88.343,118.508 88.343,145.685 v 0 c 0,4.677 0.248,9.083 0.692,13.243 v 0 c 1.789,31.393 27.422,70.342 62.211,68.372 v 0 c -1.667,0.131 -3.38,0.2 -5.141,0.2 v 0 c -1.864,0 -3.782,-0.077 -5.753,-0.239"
         style="fill:url(#linearGradient24);stroke:none"
         transform="matrix(1.3333333,0,0,-1.3333333,0,340)" /><path
         id="path30"
         d="m 164.822,185.969 c 0.099,0.146 0.184,0.291 0.281,0.438 v 0 c -7.267,-10.416 -23.97,-24.538 -20.636,-38.91 v 0 c 5.474,-23.588 41.009,-12.551 65.817,-39.082 v 0 c -3.19,3.814 -5.748,6.262 -7.245,7.611 v 0 c -20.937,18.871 -33.264,24.414 -34.034,35.586 v 0 c -0.573,8.277 5.763,13.029 13.013,23.795 v 0 c 12.797,19.01 5.166,39.617 -14.767,48.094 v 0 c 20.236,-9.671 -2.429,-37.532 -2.429,-37.532"
         transform="matrix(1.3333333,0,0,-1.3333333,0,340)"
         style="fill:url(#linearGradient30);stroke:none" /><path
         id="path33"
         d="M 178.45,106.31 C 200.885,89.398 204.363,37.009 122.621,33.493 v 0 c -0.494,-0.004 -1.18,-0.08 -1.848,-0.126 v 0 c -1.12,-0.077 -1.441,-1.811 -0.023,-2.165 v 0 c 21.475,-5.338 64.541,-7.94 87.798,14.041 v 0 c 16.975,16.047 18.869,42.338 1.246,63.668 v 0 c -24.782,25.879 -59.889,15.154 -65.327,38.586 v 0 c -0.195,0.843 -0.309,1.685 -0.373,2.529 v 0 c 0.416,-20.303 13.555,-28.035 34.356,-43.716"
         transform="matrix(1.3333333,0,0,-1.3333333,0,340)"
         style="fill:url(#radialGradient33);stroke:none" /><path
         id="path34"
         d="m 0,0 c 5.922,0 9.518,2.325 9.518,6.767 v 0.139 c 0,4.16 -3.313,6.627 -10.151,6.627 H -14.378 V 0 Z m -2.537,20.863 c 5.568,0 9.305,2.185 9.305,6.696 v 0.14 c 0,3.879 -3.102,6.274 -8.67,6.274 h -12.476 v -13.11 z m -20.371,16.424 c 0,2.466 1.904,4.37 4.371,4.37 h 17.764 c 5.636,0 10.078,-1.551 12.896,-4.37 2.186,-2.185 3.315,-4.864 3.315,-8.177 v -0.141 c 0,-5.921 -3.383,-9.092 -7.049,-10.996 C 14.168,16 18.186,12.686 18.186,5.99 V 5.85 c 0,-8.811 -7.26,-13.534 -18.254,-13.534 h -18.469 c -2.467,0 -4.371,1.903 -4.371,4.37 z"
         style="fill:#232176 icc-color(sRGB-IEC61966-2, 0.1, 0.13699341, 0.1289978, 0.46299744);fill-opacity:1;fill-rule:nonzero;stroke:none"
         transform="matrix(1.3333333,0,0,-1.3333333,364.21613,150.5352)"
         clip-path="url(#clipPath35)" /><path
         id="path36"
         d="M 0,0 C 0,2.236 1.762,4.134 4.066,4.134 6.303,4.134 8.201,2.304 8.201,0 v -28.33 c 0,-2.304 -1.83,-4.066 -4.135,-4.066 C 1.83,-32.396 0,-30.634 0,-28.33 Z m -0.609,13.352 c 0,2.439 2.033,3.998 4.675,3.998 2.643,0 4.676,-1.559 4.676,-3.998 v -0.408 c 0,-2.44 -2.033,-4.066 -4.676,-4.066 -2.642,0 -4.675,1.626 -4.675,4.066 z"
         style="fill:#232176 icc-color(sRGB-IEC61966-2, 0.1, 0.13699341, 0.1289978, 0.46299744);fill-opacity:1;fill-rule:nonzero;stroke:none"
         transform="matrix(1.3333333,0,0,-1.3333333,395.86853,118.03773)"
         clip-path="url(#clipPath37)" /><path
         id="path38"
         d="m 0,0 v 0.136 c 0,1.558 0.543,2.575 1.83,3.93 L 20.875,25.754 H 3.932 c -1.83,0 -3.323,1.491 -3.323,3.32 0,1.899 1.493,3.389 3.323,3.389 h 23.652 c 2.236,0 3.932,-1.356 3.932,-3.252 v -0.204 c 0,-1.559 -0.543,-2.575 -1.764,-3.931 L 10.641,3.389 h 17.621 c 1.898,0 3.388,-1.492 3.388,-3.389 0,-1.83 -1.49,-3.32 -3.388,-3.32 H 3.998 C 1.695,-3.32 0,-1.965 0,0"
         style="fill:#232176 icc-color(sRGB-IEC61966-2, 0.1, 0.13699341, 0.1289978, 0.46299744);fill-opacity:1;fill-rule:nonzero;stroke:none"
         transform="matrix(1.3333333,0,0,-1.3333333,414.12107,156.3528)"
         clip-path="url(#clipPath39)" /><path
         id="path40"
         d="M 0,0 C 0,2.236 1.762,4.134 4.066,4.134 6.303,4.134 8.201,2.304 8.201,0 v -1.83 c 2.305,3.389 5.625,6.303 11.182,6.303 8.066,0 12.742,-5.422 12.742,-13.758 V -28.33 c 0,-2.304 -1.83,-4.066 -4.066,-4.066 -2.305,0 -4.135,1.762 -4.135,4.066 v 16.605 c 0,5.557 -2.779,8.743 -7.658,8.743 -4.745,0 -8.065,-3.321 -8.065,-8.879 V -28.33 c 0,-2.304 -1.83,-4.066 -4.135,-4.066 C 1.83,-32.396 0,-30.634 0,-28.33 Z"
         style="fill:#232176 icc-color(sRGB-IEC61966-2, 0.1, 0.13699341, 0.1289978, 0.46299744);fill-opacity:1;fill-rule:nonzero;stroke:none"
         transform="matrix(1.3333333,0,0,-1.3333333,462.6472,118.03773)"
         clip-path="url(#clipPath41)" /><path
         id="path42"
         d="m 0,0 c -0.543,5.286 -3.66,9.421 -9.082,9.421 -5.016,0 -8.539,-3.863 -9.285,-9.421 z m -26.5,-2.644 v 0.136 c 0,10.234 7.252,18.638 17.486,18.638 11.385,0 17.01,-9.353 17.01,-17.621 0,-2.305 -1.762,-3.931 -3.861,-3.931 h -22.434 c 0.881,-5.829 5.016,-9.082 10.301,-9.082 3.457,0 6.168,1.152 8.473,3.118 0.406,0.338 1.152,0.745 2.099,0.745 1.83,0 3.254,-1.491 3.254,-3.321 0,-1.016 -0.474,-1.897 -1.084,-2.439 -3.254,-2.914 -7.32,-4.813 -12.877,-4.813 -10.369,0 -18.367,7.524 -18.367,18.57"
         style="fill:#232176 icc-color(sRGB-IEC61966-2, 0.1, 0.13699341, 0.1289978, 0.46299744);fill-opacity:1;fill-rule:nonzero;stroke:none"
         transform="matrix(1.3333333,0,0,-1.3333333,546.86587,133.58067)"
         clip-path="url(#clipPath43)" /><path
         id="path44"
         d="m 0,0 v 18.841 h -1.355 c -1.965,0 -3.524,1.558 -3.524,3.524 0,1.965 1.559,3.524 3.524,3.524 H 0 v 6.099 c 0,2.238 1.83,4.067 4.066,4.067 2.305,0 4.135,-1.829 4.135,-4.067 v -6.099 h 6.438 c 1.966,0 3.525,-1.559 3.525,-3.524 0,-1.966 -1.559,-3.524 -3.525,-3.524 H 8.201 V 1.287 c 0,-3.185 1.627,-4.473 4.404,-4.473 0.95,0 1.764,0.204 2.034,0.204 1.83,0 3.457,-1.491 3.457,-3.389 0,-1.49 -1.016,-2.711 -2.168,-3.186 -1.764,-0.609 -3.457,-0.948 -5.625,-0.948 C 4.27,-10.505 0,-7.861 0,0"
         style="fill:#232176 icc-color(sRGB-IEC61966-2, 0.1, 0.13699341, 0.1289978, 0.46299744);fill-opacity:1;fill-rule:nonzero;stroke:none"
         transform="matrix(1.3333333,0,0,-1.3333333,566.47267,147.5872)"
         clip-path="url(#clipPath45)" /><path
         id="path46"
         d="M 0,0 V 0.019 C 0,1.82 -1.396,3.278 -3.248,3.278 -5.109,3.278 -6.518,1.8 -6.518,0 v -0.021 c 0,-1.802 1.399,-3.259 3.25,-3.259 C -1.408,-3.28 0,-1.802 0,0 M -7.102,-0.021 V 0 c 0,2.091 1.7,3.842 3.854,3.842 2.156,0 3.832,-1.731 3.832,-3.821 L 0.584,0 c 0,-2.093 -1.697,-3.845 -3.854,-3.845 -2.154,0 -3.832,1.731 -3.832,3.824"
         style="fill:#232176 icc-color(sRGB-IEC61966-2, 0.1, 0.13699341, 0.1289978, 0.46299744);fill-opacity:1;fill-rule:nonzero;stroke:none"
         transform="matrix(1.3333333,0,0,-1.3333333,595.29293,99.1068)"
         clip-path="url(#clipPath47)" /><path
         id="path48"
         d="M 0,0 C 0.5,0 0.797,0.243 0.797,0.625 V 0.647 C 0.797,1.051 0.5,1.272 0,1.272 H -0.998 V 0 Z m -1.76,1.58 c 0,0.213 0.17,0.383 0.381,0.383 h 1.412 c 0.53,0 0.946,-0.158 1.221,-0.434 0.211,-0.204 0.328,-0.49 0.328,-0.84 V 0.666 c 0,-0.613 -0.35,-1.018 -0.9,-1.198 l 0.773,-0.955 c 0.063,-0.075 0.108,-0.159 0.108,-0.265 0,-0.201 -0.172,-0.371 -0.362,-0.371 -0.16,0 -0.234,0.051 -0.33,0.178 l -1.01,1.275 h -0.039 -0.82 v -1.071 c 0,-0.212 -0.18,-0.382 -0.381,-0.382 -0.211,0 -0.381,0.17 -0.381,0.382 z"
         style="fill:#232176 icc-color(sRGB-IEC61966-2, 0.1, 0.13699341, 0.1289978, 0.46299744);fill-opacity:1;fill-rule:nonzero;stroke:none"
         transform="matrix(1.3333333,0,0,-1.3333333,591.23053,98.894533)"
         clip-path="url(#clipPath49)" /></g><g
       clip-path="url(#04ced965c7)"
       id="g12"
       transform="matrix(2.2716907,0,0,2.2716907,50.080073,16.975501)"><path
         fill="#c6302c"
         d="m 246.10156,157.58594 c -2.39062,-12.26172 -17.38281,-12.46875 -21.07812,-1.00391 -3.69922,-11.46484 -18.69141,-11.25781 -21.08203,1.00391 -2.16797,11.125 21.08203,28.67578 21.08203,28.67578 0,0 23.25,-17.55078 21.07812,-28.67578 z m 0,0"
         fill-opacity="1"
         fill-rule="nonzero"
         id="path11-2" /></g><g
       id="g4"
       transform="matrix(1.9691132,0,0,1.9691132,670.08002,256.58168)"><path
         d="M 71.05,23.68 C 44.99,23.68 23.78,44.9 23.78,70.95 23.78,97 45,118.22 71.05,118.22 97.1,118.22 118.32,97 118.32,70.95 118.32,44.9 97.1,23.68 71.05,23.68 Z m -0.07,4.2 a 3.1,3.11 0 0 1 3.02,3.11 3.11,3.11 0 0 1 -6.22,0 3.11,3.11 0 0 1 3.2,-3.11 z M 78.1,33 a 38.27,38.27 0 0 1 26.2,18.66 l -3.67,8.28 c -0.63,1.43 0.02,3.11 1.44,3.75 l 7.06,3.13 a 38.27,38.27 0 0 1 0.08,6.64 h -3.93 c -0.39,0 -0.55,0.26 -0.55,0.64 v 1.8 c 0,4.24 -2.39,5.17 -4.49,5.4 -2,0.23 -4.21,-0.84 -4.49,-2.06 -1.18,-6.63 -3.14,-8.04 -6.24,-10.49 3.85,-2.44 7.85,-6.05 7.85,-10.87 0,-5.21 -3.57,-8.49 -6,-10.1 -3.42,-2.25 -7.2,-2.7 -8.22,-2.7 H 42.54 A 38.27,38.27 0 0 1 63.95,33 l 4.79,5.02 c 1.08,1.13 2.87,1.18 4,0.09 z M 33.9,56.02 a 3.11,3.11 0 0 1 3.02,3.11 3.11,3.11 0 0 1 -6.22,0 3.11,3.11 0 0 1 3.2,-3.11 z m 74.15,0.14 a 3.11,3.11 0 0 1 3.02,3.11 3.11,3.11 0 0 1 -6.22,0 3.11,3.11 0 0 1 3.2,-3.11 z m -68.29,0.5 h 5.42 V 81.1 H 34.24 A 38.27,38.27 0 0 1 33,66.49 l 6.7,-2.98 c 1.43,-0.64 2.08,-2.31 1.44,-3.74 z m 22.62,0.26 h 12.91 c 0.67,0 4.71,0.77 4.71,3.8 0,2.51 -3.1,3.41 -5.65,3.41 H 62.37 Z m 0,17.56 h 9.89 c 0.9,0 4.83,0.26 6.08,5.28 0.39,1.54 1.26,6.56 1.85,8.17 0.59,1.8 2.98,5.4 5.53,5.4 h 16.14 a 38.27,38.27 0 0 1 -3.54,4.1 l -6.57,-1.41 c -1.53,-0.33 -3.04,0.65 -3.37,2.18 l -1.56,7.28 A 38.27,38.27 0 0 1 54.92,105.33 L 53.36,98.05 C 53.03,96.52 51.53,95.54 50,95.87 l -6.43,1.38 a 38.27,38.27 0 0 1 -3.32,-3.92 h 31.27 c 0.35,0 0.59,-0.06 0.59,-0.39 V 81.88 c 0,-0.32 -0.24,-0.39 -0.59,-0.39 H 62.37 Z M 47.95,99.81 a 3.11,3.11 0 0 1 3.02,3.11 3.11,3.11 0 0 1 -6.22,0 3.11,3.11 0 0 1 3.2,-3.11 z M 94,99.95 a 3.11,3.11 0 0 1 3.02,3.11 3.11,3.11 0 0 1 -6.22,0 3.11,3.11 0 0 1 3.2,-3.11 z"
         id="path1-9" /><path
         d="M 115.68,70.95 A 44.63,44.63 0 0 1 71.05,115.58 44.63,44.63 0 0 1 26.42,70.95 44.63,44.63 0 0 1 71.05,26.32 44.63,44.63 0 0 1 115.68,70.95 Z m -0.84,-4.31 6.96,4.31 -6.96,4.31 5.98,5.59 -7.66,2.87 4.78,6.65 -8.09,1.32 3.4,7.46 -8.19,-0.29 1.88,7.98 -7.98,-1.88 0.29,8.19 -7.46,-3.4 -1.32,8.09 -6.65,-4.78 -2.87,7.66 -5.59,-5.98 -4.31,6.96 -4.31,-6.96 -5.59,5.98 -2.87,-7.66 -6.65,4.78 -1.32,-8.09 -7.46,3.4 0.29,-8.19 -7.98,1.88 1.88,-7.98 -8.19,0.29 3.4,-7.46 -8.09,-1.32 4.78,-6.65 -7.66,-2.87 5.98,-5.59 -6.96,-4.31 6.96,-4.31 -5.98,-5.59 7.66,-2.87 -4.78,-6.65 8.09,-1.32 -3.4,-7.46 8.19,0.29 -1.88,-7.98 7.98,1.88 -0.29,-8.19 7.46,3.4 1.32,-8.09 6.65,4.78 2.87,-7.66 5.59,5.98 4.31,-6.96 4.31,6.96 5.59,-5.98 2.87,7.66 6.65,-4.78 1.32,8.09 7.46,-3.4 -0.29,8.19 7.98,-1.88 -1.88,7.98 8.19,-0.29 -3.4,7.46 8.09,1.32 -4.78,6.65 7.66,2.87 z"
         fill-rule="evenodd"
         stroke="#000000"
         stroke-linecap="round"
         stroke-linejoin="round"
         stroke-width="3"
         id="path2-1" /></g><circle
       r="147"
       cx="281.74869"
       cy="793.70081"
       id="circle1"
       style="fill:#84c14b" /><circle
       r="65"
       cx="977.8714"
       cy="125.47005"
       id="circle2"
       style="fill:#84c14b" /><circle
       r="136"
       cx="1122.5197"
       cy="624.81305"
       id="circle3"
       style="fill:#84c14b" /><rect
       style="fill:#000000;fill-opacity:0"
       id="rect2"
       width="283.29941"
       height="485.8277"
       x="-514.85986"
       y="104.17485" /><rect
       style="fill:#000000;fill-opacity:0"
       id="rect3"
       width="853.47906"
       height="835.28571"
       x="-351.88092"
       y="-170.63362" /></g></svg>
