<?xml version="1.0" encoding="UTF-8" standalone="no"?>
<!-- Created with Inkscape (http://www.inkscape.org/) -->

<svg
   width="57.088219mm"
   height="70.555557mm"
   viewBox="0 0 57.088219 70.555557"
   version="1.1"
   id="svg1"
   inkscape:version="1.3 (0e150ed6c4, 2023-07-21)"
   sodipodi:docname="biznet_giocloud_letter.svg"
   xmlns:inkscape="http://www.inkscape.org/namespaces/inkscape"
   xmlns:sodipodi="http://sodipodi.sourceforge.net/DTD/sodipodi-0.dtd"
   xmlns="http://www.w3.org/2000/svg"
   xmlns:svg="http://www.w3.org/2000/svg">
  <sodipodi:namedview
     id="namedview1"
     pagecolor="#ffffff"
     bordercolor="#000000"
     borderopacity="0.25"
     inkscape:showpageshadow="2"
     inkscape:pageopacity="0.0"
     inkscape:pagecheckerboard="0"
     inkscape:deskcolor="#d1d1d1"
     inkscape:document-units="mm"
     inkscape:zoom="0.71179153"
     inkscape:cx="266.22964"
     inkscape:cy="448.86738"
     inkscape:window-width="1920"
     inkscape:window-height="1011"
     inkscape:window-x="0"
     inkscape:window-y="0"
     inkscape:window-maximized="1"
     inkscape:current-layer="layer1" />
  <defs
     id="defs1">
    <linearGradient
       x1="0"
       y1="0"
       x2="1"
       y2="0"
       gradientUnits="userSpaceOnUse"
       gradientTransform="matrix(30.560235,0,0,30.560235,44.780938,42.014651)"
       spreadMethod="pad"
       id="linearGradient21">
      <stop
         style="stop-opacity:1;stop-color:#97ca4e icc-color(sRGB-IEC61966-2.1, 0.59214783, 0.79214478, 0.30587769);"
         offset="0"
         id="stop16" />
      <stop
         style="stop-opacity:1;stop-color:#97ca4e icc-color(sRGB-IEC61966-2.1, 0.59214783, 0.79214478, 0.30587769);"
         offset="0.169907"
         id="stop17" />
      <stop
         style="stop-opacity:1;stop-color:#97ca4e icc-color(sRGB-IEC61966-2.1, 0.59214783, 0.79214478, 0.30587769);"
         offset="0.29401455"
         id="stop18" />
      <stop
         style="stop-opacity:1;stop-color:#008541 icc-color(sRGB-IEC61966-2.1, 0, 0.52157593, 0.25488281);"
         offset="0.762451"
         id="stop19" />
      <stop
         style="stop-opacity:1;stop-color:#008541 icc-color(sRGB-IEC61966-2.1, 0, 0.52157593, 0.25488281);"
         offset="0.81220532"
         id="stop20" />
      <stop
         style="stop-opacity:1;stop-color:#008541 icc-color(sRGB-IEC61966-2.1, 0, 0.52157593, 0.25488281);"
         offset="1"
         id="stop21" />
    </linearGradient>
    <linearGradient
       x1="0"
       y1="0"
       x2="1"
       y2="0"
       gradientUnits="userSpaceOnUse"
       gradientTransform="matrix(-25.097988,-53.822806,53.822806,-25.097993,67.873758,91.119318)"
       spreadMethod="pad"
       id="linearGradient24">
      <stop
         style="stop-opacity:1;stop-color:#97ca4e icc-color(sRGB-IEC61966-2.1, 0.59214783, 0.79214478, 0.30587769);"
         offset="0"
         id="stop22" />
      <stop
         style="stop-opacity:1;stop-color:#97ca4e icc-color(sRGB-IEC61966-2.1, 0.59214783, 0.79214478, 0.30587769);"
         offset="0.55007649"
         id="stop23" />
      <stop
         style="stop-opacity:1;stop-color:#008541 icc-color(sRGB-IEC61966-2.1, 0, 0.52157593, 0.25488281);"
         offset="1"
         id="stop24" />
    </linearGradient>
    <linearGradient
       x1="0"
       y1="0"
       x2="1"
       y2="0"
       gradientUnits="userSpaceOnUse"
       gradientTransform="matrix(0,43.994083,-43.994083,0,75.868789,30.690795)"
       spreadMethod="pad"
       id="linearGradient30">
      <stop
         style="stop-opacity:1;stop-color:#97ca4e icc-color(sRGB-IEC61966-2.1, 0.59214783, 0.79214478, 0.30587769);"
         offset="0"
         id="stop25" />
      <stop
         style="stop-opacity:1;stop-color:#97ca4e icc-color(sRGB-IEC61966-2.1, 0.59214783, 0.79214478, 0.30587769);"
         offset="0.169907"
         id="stop26" />
      <stop
         style="stop-opacity:1;stop-color:#97ca4e icc-color(sRGB-IEC61966-2.1, 0.59214783, 0.79214478, 0.30587769);"
         offset="0.29401455"
         id="stop27" />
      <stop
         style="stop-opacity:1;stop-color:#008541 icc-color(sRGB-IEC61966-2.1, 0, 0.52157593, 0.25488281);"
         offset="0.762451"
         id="stop28" />
      <stop
         style="stop-opacity:1;stop-color:#008541 icc-color(sRGB-IEC61966-2.1, 0, 0.52157593, 0.25488281);"
         offset="0.81220532"
         id="stop29" />
      <stop
         style="stop-opacity:1;stop-color:#008541 icc-color(sRGB-IEC61966-2.1, 0, 0.52157593, 0.25488281);"
         offset="1"
         id="stop30" />
    </linearGradient>
    <radialGradient
       fx="0"
       fy="0"
       cx="0"
       cy="0"
       r="1"
       gradientUnits="userSpaceOnUse"
       gradientTransform="matrix(42.306869,0,0,52.968202,58.038351,98.735735)"
       spreadMethod="pad"
       id="radialGradient33">
      <stop
         style="stop-opacity:1;stop-color:#97ca4e icc-color(sRGB-IEC61966-2.1, 0.59214783, 0.79214478, 0.30587769);"
         offset="0"
         id="stop31" />
      <stop
         style="stop-opacity:1;stop-color:#97ca4e icc-color(sRGB-IEC61966-2.1, 0.59214783, 0.79214478, 0.30587769);"
         offset="0.63868264"
         id="stop32" />
      <stop
         style="stop-opacity:1;stop-color:#008541 icc-color(sRGB-IEC61966-2.1, 0, 0.52157593, 0.25488281);"
         offset="1"
         id="stop33" />
    </radialGradient>
  </defs>
  <g
     inkscape:label="Layer 1"
     inkscape:groupmode="layer"
     id="layer1"
     transform="translate(-34.66042,-29.897912)">
    <path
       id="path21"
       d="M 44.780882,54.088584 C 46.718691,40.243819 61.502901,34.185214 69.414649,37.217339 v 0 c 2.0193,0.773642 3.667125,2.4003 3.254023,4.87433 v 0 c -0.13335,0.798689 -0.577147,1.611136 -1.151822,2.45745 v 0 c 0,0 8.568267,-10.529711 0.05503,-13.575947 v 0 C 69.594565,30.2655 67.674042,29.941297 65.833249,29.940945 v 0 c -11.81735,-0.0014 -20.436769,13.34276 -21.052367,24.147639"
       style="fill:url(#linearGradient21);stroke:none;stroke-width:0.352777" />
    <path
       id="path24"
       d="m 62.88438,29.98222 c -3.377142,0.275519 -12.283016,2.021416 -19.199577,8.578144 v 0 c -7.197021,6.823428 -9.113662,16.822562 -9.021233,27.733272 v 0 c 0.223309,26.381426 12.279842,30.71918 17.529527,32.022343 v 0 c 0.03881,0.0088 0.07832,0.01976 0.121002,0.01976 v 0 c 0.208846,0 0.378179,-0.169333 0.378179,-0.377825 v 0 c 0,-0.156985 -0.09984,-0.280104 -0.230716,-0.348543 v 0 c -9.061805,-4.7244 -7.9248,-29.261504 -7.9248,-38.848945 v 0 c 0,-1.649942 0.08749,-3.204282 0.24412,-4.671835 v 0 C 45.412003,43.013841 54.454755,29.2735 66.72754,29.968472 v 0 c -0.588081,-0.04621 -1.192389,-0.07056 -1.813631,-0.07056 v 0 c -0.657577,0 -1.334204,0.02716 -2.029529,0.08431"
       style="fill:url(#linearGradient24);stroke:none;stroke-width:0.352777" />
    <path
       id="path30"
       d="m 71.51685,44.549119 c 0.03493,-0.05151 0.06491,-0.102658 0.09913,-0.154516 v 0 c -2.563635,3.674533 -8.456083,8.65646 -7.279923,13.726583 v 0 c 1.931106,8.32132 14.467064,4.427712 23.218775,13.78726 v 0 c -1.125361,-1.345494 -2.027767,-2.209094 -2.555875,-2.684992 v 0 C 77.61285,62.566186 73.264159,60.610738 72.992522,56.669504 v 0 c -0.202142,-2.919941 2.033058,-4.596341 4.590695,-8.394345 v 0 c 4.514498,-6.706306 1.82245,-13.975998 -5.209468,-16.966495 v 0 c 7.13881,3.411714 -0.856899,13.240455 -0.856899,13.240455"
       style="fill:url(#linearGradient30);stroke:none;stroke-width:0.352777" />
    <path
       id="path33"
       d="m 76.324507,72.651044 c 7.914568,5.966177 9.141531,24.447852 -19.695231,25.688218 v 0 c -0.174271,0.0013 -0.416277,0.02822 -0.651934,0.04445 v 0 c -0.39511,0.02716 -0.508352,0.638879 -0.0081,0.763762 v 0 c 7.575901,1.883126 22.768628,2.801056 30.973183,-4.953351 v 0 c 5.988401,-5.661025 6.656562,-14.935904 0.43956,-22.460654 v 0 C 78.639423,62.603931 66.254455,66.387473 64.336048,58.121186 v 0 c -0.06879,-0.297392 -0.109008,-0.594432 -0.131585,-0.892175 v 0 c 0.146757,7.162445 4.781902,9.890125 12.120033,15.422033"
       style="fill:url(#radialGradient33);stroke:none;stroke-width:0.352777" />
  </g>
</svg>
